<mxfile host="app.diagrams.net" modified="2020-10-29T18:00:20.186Z" agent="5.0 (Windows NT 10.0; Win64; x64) AppleWebKit/537.36 (KHTML, like Gecko) Chrome/86.0.4240.111 Safari/537.36" etag="GM2Xe2OTsTOcd4uVuXrt" version="13.8.3" type="github">
  <diagram name="Page-1" id="dd472eb7-4b8b-5cd9-a60b-b15522922e76">
    <mxGraphModel dx="2250" dy="3247" grid="1" gridSize="10" guides="1" tooltips="1" connect="1" arrows="1" fold="1" page="1" pageScale="1" pageWidth="1100" pageHeight="850" background="none" math="0" shadow="0">
      <root>
        <mxCell id="0" />
        <mxCell id="1" parent="0" />
        <mxCell id="hXWdCOX5dW75Eq7yHCM4-23" value="Employee" style="shape=table;html=1;whiteSpace=wrap;startSize=30;container=1;collapsible=0;childLayout=tableLayout;fixedRows=1;rowLines=0;fontStyle=1;align=center;fillColor=#b1ddf0;strokeColor=#10739e;verticalAlign=middle;" vertex="1" parent="1">
          <mxGeometry x="-985" y="-1267" width="180" height="310" as="geometry" />
        </mxCell>
        <mxCell id="hXWdCOX5dW75Eq7yHCM4-24" value="" style="shape=partialRectangle;html=1;whiteSpace=wrap;collapsible=0;dropTarget=0;pointerEvents=0;fillColor=none;top=0;left=0;bottom=1;right=0;points=[[0,0.5],[1,0.5]];portConstraint=eastwest;align=center;verticalAlign=middle;" vertex="1" parent="hXWdCOX5dW75Eq7yHCM4-23">
          <mxGeometry y="30" width="180" height="30" as="geometry" />
        </mxCell>
        <mxCell id="hXWdCOX5dW75Eq7yHCM4-25" value="PK" style="shape=partialRectangle;html=1;whiteSpace=wrap;connectable=0;fillColor=none;top=0;left=0;bottom=0;right=0;overflow=hidden;align=center;verticalAlign=middle;" vertex="1" parent="hXWdCOX5dW75Eq7yHCM4-24">
          <mxGeometry width="40" height="30" as="geometry" />
        </mxCell>
        <mxCell id="hXWdCOX5dW75Eq7yHCM4-26" value="EmployeID" style="shape=partialRectangle;html=1;whiteSpace=wrap;connectable=0;fillColor=none;top=0;left=0;bottom=0;right=0;align=center;spacingLeft=6;overflow=hidden;verticalAlign=middle;" vertex="1" parent="hXWdCOX5dW75Eq7yHCM4-24">
          <mxGeometry x="40" width="140" height="30" as="geometry" />
        </mxCell>
        <mxCell id="hXWdCOX5dW75Eq7yHCM4-27" value="" style="shape=partialRectangle;html=1;whiteSpace=wrap;collapsible=0;dropTarget=0;pointerEvents=0;fillColor=none;top=0;left=0;bottom=0;right=0;points=[[0,0.5],[1,0.5]];portConstraint=eastwest;align=center;verticalAlign=middle;" vertex="1" parent="hXWdCOX5dW75Eq7yHCM4-23">
          <mxGeometry y="60" width="180" height="30" as="geometry" />
        </mxCell>
        <mxCell id="hXWdCOX5dW75Eq7yHCM4-28" value="" style="shape=partialRectangle;html=1;whiteSpace=wrap;connectable=0;fillColor=none;top=0;left=0;bottom=0;right=0;overflow=hidden;align=center;verticalAlign=middle;" vertex="1" parent="hXWdCOX5dW75Eq7yHCM4-27">
          <mxGeometry width="40" height="30" as="geometry" />
        </mxCell>
        <mxCell id="hXWdCOX5dW75Eq7yHCM4-29" value="FirstName" style="shape=partialRectangle;html=1;whiteSpace=wrap;connectable=0;fillColor=none;top=0;left=0;bottom=0;right=0;align=center;spacingLeft=6;overflow=hidden;verticalAlign=middle;" vertex="1" parent="hXWdCOX5dW75Eq7yHCM4-27">
          <mxGeometry x="40" width="140" height="30" as="geometry" />
        </mxCell>
        <mxCell id="hXWdCOX5dW75Eq7yHCM4-30" value="" style="shape=partialRectangle;html=1;whiteSpace=wrap;collapsible=0;dropTarget=0;pointerEvents=0;fillColor=none;top=0;left=0;bottom=0;right=0;points=[[0,0.5],[1,0.5]];portConstraint=eastwest;align=center;verticalAlign=middle;" vertex="1" parent="hXWdCOX5dW75Eq7yHCM4-23">
          <mxGeometry y="90" width="180" height="30" as="geometry" />
        </mxCell>
        <mxCell id="hXWdCOX5dW75Eq7yHCM4-31" value="" style="shape=partialRectangle;html=1;whiteSpace=wrap;connectable=0;fillColor=none;top=0;left=0;bottom=0;right=0;overflow=hidden;align=center;verticalAlign=middle;" vertex="1" parent="hXWdCOX5dW75Eq7yHCM4-30">
          <mxGeometry width="40" height="30" as="geometry" />
        </mxCell>
        <mxCell id="hXWdCOX5dW75Eq7yHCM4-32" value="LastName" style="shape=partialRectangle;html=1;whiteSpace=wrap;connectable=0;fillColor=none;top=0;left=0;bottom=0;right=0;align=center;spacingLeft=6;overflow=hidden;verticalAlign=middle;" vertex="1" parent="hXWdCOX5dW75Eq7yHCM4-30">
          <mxGeometry x="40" width="140" height="30" as="geometry" />
        </mxCell>
        <mxCell id="hXWdCOX5dW75Eq7yHCM4-33" value="Department" style="shape=table;html=1;whiteSpace=wrap;startSize=30;container=1;collapsible=0;childLayout=tableLayout;fixedRows=1;rowLines=0;fontStyle=1;align=center;fillColor=#b1ddf0;strokeColor=#10739e;verticalAlign=middle;" vertex="1" parent="1">
          <mxGeometry x="-695" y="-982" width="180" height="90" as="geometry" />
        </mxCell>
        <mxCell id="hXWdCOX5dW75Eq7yHCM4-34" value="" style="shape=partialRectangle;html=1;whiteSpace=wrap;collapsible=0;dropTarget=0;pointerEvents=0;fillColor=none;top=0;left=0;bottom=1;right=0;points=[[0,0.5],[1,0.5]];portConstraint=eastwest;align=center;verticalAlign=middle;" vertex="1" parent="hXWdCOX5dW75Eq7yHCM4-33">
          <mxGeometry y="30" width="180" height="30" as="geometry" />
        </mxCell>
        <mxCell id="hXWdCOX5dW75Eq7yHCM4-35" value="PK" style="shape=partialRectangle;html=1;whiteSpace=wrap;connectable=0;fillColor=none;top=0;left=0;bottom=0;right=0;overflow=hidden;align=center;verticalAlign=middle;" vertex="1" parent="hXWdCOX5dW75Eq7yHCM4-34">
          <mxGeometry width="40" height="30" as="geometry" />
        </mxCell>
        <mxCell id="hXWdCOX5dW75Eq7yHCM4-36" value="DepartmentID" style="shape=partialRectangle;html=1;whiteSpace=wrap;connectable=0;fillColor=none;top=0;left=0;bottom=0;right=0;align=center;spacingLeft=6;overflow=hidden;verticalAlign=middle;" vertex="1" parent="hXWdCOX5dW75Eq7yHCM4-34">
          <mxGeometry x="40" width="140" height="30" as="geometry" />
        </mxCell>
        <mxCell id="hXWdCOX5dW75Eq7yHCM4-37" value="" style="shape=partialRectangle;html=1;whiteSpace=wrap;collapsible=0;dropTarget=0;pointerEvents=0;fillColor=none;top=0;left=0;bottom=0;right=0;points=[[0,0.5],[1,0.5]];portConstraint=eastwest;align=center;verticalAlign=middle;" vertex="1" parent="hXWdCOX5dW75Eq7yHCM4-33">
          <mxGeometry y="60" width="180" height="30" as="geometry" />
        </mxCell>
        <mxCell id="hXWdCOX5dW75Eq7yHCM4-38" value="" style="shape=partialRectangle;html=1;whiteSpace=wrap;connectable=0;fillColor=none;top=0;left=0;bottom=0;right=0;overflow=hidden;align=center;verticalAlign=middle;" vertex="1" parent="hXWdCOX5dW75Eq7yHCM4-37">
          <mxGeometry width="40" height="30" as="geometry" />
        </mxCell>
        <mxCell id="hXWdCOX5dW75Eq7yHCM4-39" value="&lt;span style=&quot;color: rgba(0 , 0 , 0 , 0) ; font-family: monospace ; font-size: 0px&quot;&gt;%3CmxGraphModel%3E%3Croot%3E%3CmxCell%20id%3D%220%22%2F%3E%3CmxCell%20id%3D%221%22%20parent%3D%220%22%2F%3E%3CmxCell%20id%3D%222%22%20value%3D%224%22%20style%3D%22shape%3DpartialRectangle%3Bhtml%3D1%3BwhiteSpace%3Dwrap%3Bconnectable%3D0%3BfillColor%3Dnone%3Btop%3D0%3Bleft%3D0%3Bbottom%3D0%3Bright%3D0%3Boverflow%3Dhidden%3B%22%20vertex%3D%221%22%20parent%3D%221%22%3E%3CmxGeometry%20x%3D%22-960%22%20y%3D%22-660%22%20width%3D%2240%22%20height%3D%2230%22%20as%3D%22geometry%22%2F%3E%3C%2FmxCell%3E%3C%2Froot%3E%3C%2FmxGraphModel%3E&lt;/span&gt;&lt;span style=&quot;color: rgba(0 , 0 , 0 , 0) ; font-family: monospace ; font-size: 0px&quot;&gt;%3CmxGraphModel%3E%3Croot%3E%3CmxCell%20id%3D%220%22%2F%3E%3CmxCell%20id%3D%221%22%20parent%3D%220%22%2F%3E%3CmxCell%20id%3D%222%22%20value%3D%224%22%20style%3D%22shape%3DpartialRectangle%3Bhtml%3D1%3BwhiteSpace%3Dwrap%3Bconnectable%3D0%3BfillColor%3Dnone%3Btop%3D0%3Bleft%3D0%3Bbottom%3D0%3Bright%3D0%3Boverflow%3Dhidden%3B%22%20vertex%3D%221%22%20parent%3D%221%22%3E%3CmxGeometry%20x%3D%22-960%22%20y%3D%22-660%22%20width%3D%2240%22%20height%3D%2230%22%20as%3D%22geometry%22%2F%3E%3C%2FmxCell%3E%3C%2Froot%3E%3C%2FmxGraphModel%3E&lt;/span&gt;&lt;span style=&quot;color: rgba(0 , 0 , 0 , 0) ; font-family: monospace ; font-size: 0px&quot;&gt;%3CmxGraphModel%3E%3Croot%3E%3CmxCell%20id%3D%220%22%2F%3E%3CmxCell%20id%3D%221%22%20parent%3D%220%22%2F%3E%3CmxCell%20id%3D%222%22%20value%3D%224%22%20style%3D%22shape%3DpartialRectangle%3Bhtml%3D1%3BwhiteSpace%3Dwrap%3Bconnectable%3D0%3BfillColor%3Dnone%3Btop%3D0%3Bleft%3D0%3Bbottom%3D0%3Bright%3D0%3Boverflow%3Dhidden%3B%22%20vertex%3D%221%22%20parent%3D%221%22%3E%3CmxGeometry%20x%3D%22-960%22%20y%3D%22-660%22%20width%3D%2240%22%20height%3D%2230%22%20as%3D%22geometry%22%2F%3E%3C%2FmxCell%3E%3C%2Froot%3E%3C%2FmxGraphModel%3E&lt;/span&gt;" style="shape=partialRectangle;html=1;whiteSpace=wrap;connectable=0;fillColor=none;top=0;left=0;bottom=0;right=0;align=center;spacingLeft=6;overflow=hidden;verticalAlign=middle;" vertex="1" parent="hXWdCOX5dW75Eq7yHCM4-37">
          <mxGeometry x="40" width="140" height="30" as="geometry" />
        </mxCell>
        <mxCell id="hXWdCOX5dW75Eq7yHCM4-43" value="DepartmentManager" style="shape=table;html=1;whiteSpace=wrap;startSize=30;container=1;collapsible=0;childLayout=tableLayout;fixedRows=1;rowLines=0;fontStyle=1;align=center;shadow=0;fillColor=#b1ddf0;strokeColor=#10739e;verticalAlign=middle;" vertex="1" parent="1">
          <mxGeometry x="-695" y="-1197" width="180" height="150" as="geometry" />
        </mxCell>
        <mxCell id="hXWdCOX5dW75Eq7yHCM4-44" value="" style="shape=partialRectangle;html=1;whiteSpace=wrap;collapsible=0;dropTarget=0;pointerEvents=0;fillColor=none;top=0;left=0;bottom=1;right=0;points=[[0,0.5],[1,0.5]];portConstraint=eastwest;shadow=0;align=center;verticalAlign=middle;" vertex="1" parent="hXWdCOX5dW75Eq7yHCM4-43">
          <mxGeometry y="30" width="180" height="30" as="geometry" />
        </mxCell>
        <mxCell id="hXWdCOX5dW75Eq7yHCM4-45" value="FK" style="shape=partialRectangle;html=1;whiteSpace=wrap;connectable=0;fillColor=none;top=0;left=0;bottom=0;right=0;overflow=hidden;shadow=0;align=center;verticalAlign=middle;" vertex="1" parent="hXWdCOX5dW75Eq7yHCM4-44">
          <mxGeometry width="40" height="30" as="geometry" />
        </mxCell>
        <mxCell id="hXWdCOX5dW75Eq7yHCM4-46" value="DepartmentID" style="shape=partialRectangle;html=1;whiteSpace=wrap;connectable=0;fillColor=none;top=0;left=0;bottom=0;right=0;align=center;spacingLeft=6;overflow=hidden;shadow=0;verticalAlign=middle;" vertex="1" parent="hXWdCOX5dW75Eq7yHCM4-44">
          <mxGeometry x="40" width="140" height="30" as="geometry" />
        </mxCell>
        <mxCell id="hXWdCOX5dW75Eq7yHCM4-47" value="" style="shape=partialRectangle;html=1;whiteSpace=wrap;collapsible=0;dropTarget=0;pointerEvents=0;fillColor=none;top=0;left=0;bottom=0;right=0;points=[[0,0.5],[1,0.5]];portConstraint=eastwest;shadow=0;align=center;verticalAlign=middle;" vertex="1" parent="hXWdCOX5dW75Eq7yHCM4-43">
          <mxGeometry y="60" width="180" height="30" as="geometry" />
        </mxCell>
        <mxCell id="hXWdCOX5dW75Eq7yHCM4-48" value="" style="shape=partialRectangle;html=1;whiteSpace=wrap;connectable=0;fillColor=none;top=0;left=0;bottom=0;right=0;overflow=hidden;shadow=0;align=center;verticalAlign=middle;" vertex="1" parent="hXWdCOX5dW75Eq7yHCM4-47">
          <mxGeometry width="40" height="30" as="geometry" />
        </mxCell>
        <mxCell id="hXWdCOX5dW75Eq7yHCM4-49" value="EmployeeID" style="shape=partialRectangle;html=1;whiteSpace=wrap;connectable=0;fillColor=none;top=0;left=0;bottom=0;right=0;align=center;spacingLeft=6;overflow=hidden;shadow=0;verticalAlign=middle;" vertex="1" parent="hXWdCOX5dW75Eq7yHCM4-47">
          <mxGeometry x="40" width="140" height="30" as="geometry" />
        </mxCell>
        <mxCell id="hXWdCOX5dW75Eq7yHCM4-50" value="" style="shape=partialRectangle;html=1;whiteSpace=wrap;collapsible=0;dropTarget=0;pointerEvents=0;fillColor=none;top=0;left=0;bottom=0;right=0;points=[[0,0.5],[1,0.5]];portConstraint=eastwest;shadow=0;align=center;verticalAlign=middle;" vertex="1" parent="hXWdCOX5dW75Eq7yHCM4-43">
          <mxGeometry y="90" width="180" height="37" as="geometry" />
        </mxCell>
        <mxCell id="hXWdCOX5dW75Eq7yHCM4-51" value="" style="shape=partialRectangle;html=1;whiteSpace=wrap;connectable=0;fillColor=none;top=0;left=0;bottom=0;right=0;overflow=hidden;shadow=0;align=center;verticalAlign=middle;" vertex="1" parent="hXWdCOX5dW75Eq7yHCM4-50">
          <mxGeometry width="40" height="37" as="geometry" />
        </mxCell>
        <mxCell id="hXWdCOX5dW75Eq7yHCM4-52" value="" style="shape=partialRectangle;html=1;whiteSpace=wrap;connectable=0;fillColor=none;top=0;left=0;bottom=0;right=0;align=center;spacingLeft=6;overflow=hidden;shadow=0;verticalAlign=middle;" vertex="1" parent="hXWdCOX5dW75Eq7yHCM4-50">
          <mxGeometry x="40" width="140" height="37" as="geometry" />
        </mxCell>
        <mxCell id="hXWdCOX5dW75Eq7yHCM4-53" value="Job" style="shape=table;html=1;whiteSpace=wrap;startSize=30;container=1;collapsible=0;childLayout=tableLayout;fixedRows=1;rowLines=0;fontStyle=1;align=center;fillColor=#b1ddf0;strokeColor=#10739e;verticalAlign=middle;" vertex="1" parent="1">
          <mxGeometry x="-700" y="-1620" width="180" height="230" as="geometry" />
        </mxCell>
        <mxCell id="hXWdCOX5dW75Eq7yHCM4-57" value="" style="shape=partialRectangle;html=1;whiteSpace=wrap;collapsible=0;dropTarget=0;pointerEvents=0;fillColor=none;top=0;left=0;bottom=0;right=0;points=[[0,0.5],[1,0.5]];portConstraint=eastwest;align=center;verticalAlign=middle;" vertex="1" parent="hXWdCOX5dW75Eq7yHCM4-53">
          <mxGeometry y="30" width="180" height="40" as="geometry" />
        </mxCell>
        <mxCell id="hXWdCOX5dW75Eq7yHCM4-58" value="PK" style="shape=partialRectangle;html=1;whiteSpace=wrap;connectable=0;fillColor=none;top=0;left=0;bottom=0;right=0;overflow=hidden;align=center;verticalAlign=middle;" vertex="1" parent="hXWdCOX5dW75Eq7yHCM4-57">
          <mxGeometry width="40" height="40" as="geometry" />
        </mxCell>
        <mxCell id="hXWdCOX5dW75Eq7yHCM4-59" value="JobID" style="shape=partialRectangle;html=1;whiteSpace=wrap;connectable=0;fillColor=none;top=0;left=0;bottom=0;right=0;align=center;spacingLeft=6;overflow=hidden;verticalAlign=middle;" vertex="1" parent="hXWdCOX5dW75Eq7yHCM4-57">
          <mxGeometry x="40" width="140" height="40" as="geometry" />
        </mxCell>
        <mxCell id="hXWdCOX5dW75Eq7yHCM4-227" value="" style="shape=partialRectangle;html=1;whiteSpace=wrap;collapsible=0;dropTarget=0;pointerEvents=0;fillColor=none;top=0;left=0;bottom=0;right=0;points=[[0,0.5],[1,0.5]];portConstraint=eastwest;align=center;verticalAlign=middle;" vertex="1" parent="hXWdCOX5dW75Eq7yHCM4-53">
          <mxGeometry y="70" width="180" height="40" as="geometry" />
        </mxCell>
        <mxCell id="hXWdCOX5dW75Eq7yHCM4-228" value="" style="shape=partialRectangle;html=1;whiteSpace=wrap;connectable=0;fillColor=none;top=0;left=0;bottom=0;right=0;overflow=hidden;align=center;verticalAlign=middle;" vertex="1" parent="hXWdCOX5dW75Eq7yHCM4-227">
          <mxGeometry width="40" height="40" as="geometry" />
        </mxCell>
        <mxCell id="hXWdCOX5dW75Eq7yHCM4-229" value="StartDate" style="shape=partialRectangle;html=1;whiteSpace=wrap;connectable=0;fillColor=none;top=0;left=0;bottom=0;right=0;align=center;spacingLeft=6;overflow=hidden;verticalAlign=middle;" vertex="1" parent="hXWdCOX5dW75Eq7yHCM4-227">
          <mxGeometry x="40" width="140" height="40" as="geometry" />
        </mxCell>
        <mxCell id="hXWdCOX5dW75Eq7yHCM4-230" value="" style="shape=partialRectangle;html=1;whiteSpace=wrap;collapsible=0;dropTarget=0;pointerEvents=0;fillColor=none;top=0;left=0;bottom=0;right=0;points=[[0,0.5],[1,0.5]];portConstraint=eastwest;align=center;verticalAlign=middle;" vertex="1" parent="hXWdCOX5dW75Eq7yHCM4-53">
          <mxGeometry y="110" width="180" height="40" as="geometry" />
        </mxCell>
        <mxCell id="hXWdCOX5dW75Eq7yHCM4-231" value="" style="shape=partialRectangle;html=1;whiteSpace=wrap;connectable=0;fillColor=none;top=0;left=0;bottom=0;right=0;overflow=hidden;align=center;verticalAlign=middle;" vertex="1" parent="hXWdCOX5dW75Eq7yHCM4-230">
          <mxGeometry width="40" height="40" as="geometry" />
        </mxCell>
        <mxCell id="hXWdCOX5dW75Eq7yHCM4-232" value="EndDate" style="shape=partialRectangle;html=1;whiteSpace=wrap;connectable=0;fillColor=none;top=0;left=0;bottom=0;right=0;align=center;spacingLeft=6;overflow=hidden;verticalAlign=middle;" vertex="1" parent="hXWdCOX5dW75Eq7yHCM4-230">
          <mxGeometry x="40" width="140" height="40" as="geometry" />
        </mxCell>
        <mxCell id="hXWdCOX5dW75Eq7yHCM4-559" value="" style="shape=partialRectangle;html=1;whiteSpace=wrap;collapsible=0;dropTarget=0;pointerEvents=0;fillColor=none;top=0;left=0;bottom=0;right=0;points=[[0,0.5],[1,0.5]];portConstraint=eastwest;align=center;verticalAlign=middle;" vertex="1" parent="hXWdCOX5dW75Eq7yHCM4-53">
          <mxGeometry y="150" width="180" height="40" as="geometry" />
        </mxCell>
        <mxCell id="hXWdCOX5dW75Eq7yHCM4-560" value="" style="shape=partialRectangle;html=1;whiteSpace=wrap;connectable=0;fillColor=none;top=0;left=0;bottom=0;right=0;overflow=hidden;align=center;verticalAlign=middle;" vertex="1" parent="hXWdCOX5dW75Eq7yHCM4-559">
          <mxGeometry width="40" height="40" as="geometry" />
        </mxCell>
        <mxCell id="hXWdCOX5dW75Eq7yHCM4-561" value="CurrentJobTitle" style="shape=partialRectangle;html=1;whiteSpace=wrap;connectable=0;fillColor=none;top=0;left=0;bottom=0;right=0;align=center;spacingLeft=6;overflow=hidden;verticalAlign=middle;" vertex="1" parent="hXWdCOX5dW75Eq7yHCM4-559">
          <mxGeometry x="40" width="140" height="40" as="geometry" />
        </mxCell>
        <mxCell id="hXWdCOX5dW75Eq7yHCM4-574" value="" style="shape=partialRectangle;html=1;whiteSpace=wrap;collapsible=0;dropTarget=0;pointerEvents=0;fillColor=none;top=0;left=0;bottom=0;right=0;points=[[0,0.5],[1,0.5]];portConstraint=eastwest;align=center;verticalAlign=middle;" vertex="1" parent="hXWdCOX5dW75Eq7yHCM4-53">
          <mxGeometry y="190" width="180" height="40" as="geometry" />
        </mxCell>
        <mxCell id="hXWdCOX5dW75Eq7yHCM4-575" value="" style="shape=partialRectangle;html=1;whiteSpace=wrap;connectable=0;fillColor=none;top=0;left=0;bottom=0;right=0;overflow=hidden;align=center;verticalAlign=middle;" vertex="1" parent="hXWdCOX5dW75Eq7yHCM4-574">
          <mxGeometry width="40" height="40" as="geometry" />
        </mxCell>
        <mxCell id="hXWdCOX5dW75Eq7yHCM4-576" value="PreviousJobTitle" style="shape=partialRectangle;html=1;whiteSpace=wrap;connectable=0;fillColor=none;top=0;left=0;bottom=0;right=0;align=center;spacingLeft=6;overflow=hidden;verticalAlign=middle;" vertex="1" parent="hXWdCOX5dW75Eq7yHCM4-574">
          <mxGeometry x="40" width="140" height="40" as="geometry" />
        </mxCell>
        <mxCell id="hXWdCOX5dW75Eq7yHCM4-74" value="Gender" style="shape=partialRectangle;html=1;whiteSpace=wrap;connectable=0;fillColor=none;top=0;left=0;bottom=0;right=0;align=center;spacingLeft=6;overflow=hidden;verticalAlign=middle;" vertex="1" parent="1">
          <mxGeometry x="-945" y="-1147" width="140" height="30" as="geometry" />
        </mxCell>
        <mxCell id="hXWdCOX5dW75Eq7yHCM4-76" value="HireDate" style="shape=partialRectangle;html=1;whiteSpace=wrap;connectable=0;fillColor=none;top=0;left=0;bottom=0;right=0;align=center;spacingLeft=6;overflow=hidden;verticalAlign=middle;" vertex="1" parent="1">
          <mxGeometry x="-945" y="-1087" width="140" height="30" as="geometry" />
        </mxCell>
        <mxCell id="hXWdCOX5dW75Eq7yHCM4-80" value="CurrentJobTitle" style="shape=partialRectangle;html=1;whiteSpace=wrap;connectable=0;fillColor=none;top=0;left=0;bottom=0;right=0;align=center;spacingLeft=6;overflow=hidden;verticalAlign=middle;" vertex="1" parent="1">
          <mxGeometry x="-945" y="-1057" width="140" height="30" as="geometry" />
        </mxCell>
        <mxCell id="hXWdCOX5dW75Eq7yHCM4-82" value="DepartmentName" style="shape=partialRectangle;html=1;whiteSpace=wrap;connectable=0;fillColor=none;top=0;left=0;bottom=0;right=0;align=center;spacingLeft=6;overflow=hidden;verticalAlign=middle;" vertex="1" parent="1">
          <mxGeometry x="-655" y="-922" width="140" height="30" as="geometry" />
        </mxCell>
        <mxCell id="hXWdCOX5dW75Eq7yHCM4-83" value="DepartmentID" style="shape=partialRectangle;html=1;whiteSpace=wrap;connectable=0;fillColor=none;top=0;left=0;bottom=0;right=0;align=center;spacingLeft=6;overflow=hidden;verticalAlign=middle;" vertex="1" parent="1">
          <mxGeometry x="-945" y="-1027" width="140" height="30" as="geometry" />
        </mxCell>
        <mxCell id="hXWdCOX5dW75Eq7yHCM4-86" value="BirthDate" style="shape=partialRectangle;html=1;whiteSpace=wrap;connectable=0;fillColor=none;top=0;left=0;bottom=0;right=0;align=center;spacingLeft=6;overflow=hidden;verticalAlign=middle;" vertex="1" parent="1">
          <mxGeometry x="-945" y="-1117" width="140" height="30" as="geometry" />
        </mxCell>
        <mxCell id="hXWdCOX5dW75Eq7yHCM4-90" value="&lt;span style=&quot;&quot;&gt;ManagingStartDate&lt;/span&gt;" style="shape=partialRectangle;html=1;whiteSpace=wrap;connectable=0;fillColor=none;top=0;left=0;bottom=0;right=0;align=center;spacingLeft=6;overflow=hidden;shadow=0;verticalAlign=middle;" vertex="1" parent="1">
          <mxGeometry x="-655" y="-1110" width="140" height="30" as="geometry" />
        </mxCell>
        <mxCell id="hXWdCOX5dW75Eq7yHCM4-515" style="edgeStyle=orthogonalEdgeStyle;rounded=0;orthogonalLoop=1;jettySize=auto;html=1;exitX=1;exitY=0.5;exitDx=0;exitDy=0;entryX=0;entryY=0.5;entryDx=0;entryDy=0;startArrow=none;startFill=0;endArrow=none;endFill=0;fontSize=21;shape=link;align=center;verticalAlign=middle;" edge="1" parent="1" source="hXWdCOX5dW75Eq7yHCM4-516" target="hXWdCOX5dW75Eq7yHCM4-173">
          <mxGeometry relative="1" as="geometry" />
        </mxCell>
        <mxCell id="hXWdCOX5dW75Eq7yHCM4-521" style="rounded=0;orthogonalLoop=1;jettySize=auto;html=1;exitX=0.5;exitY=1;exitDx=0;exitDy=0;startArrow=none;startFill=0;endArrow=none;endFill=0;fontSize=21;shape=link;align=center;verticalAlign=middle;" edge="1" parent="1" source="hXWdCOX5dW75Eq7yHCM4-118" target="hXWdCOX5dW75Eq7yHCM4-159">
          <mxGeometry relative="1" as="geometry" />
        </mxCell>
        <mxCell id="hXWdCOX5dW75Eq7yHCM4-118" value="&lt;b&gt;Employee&lt;/b&gt;" style="rounded=0;whiteSpace=wrap;html=1;fillColor=#dae8fc;strokeColor=#6c8ebf;align=center;verticalAlign=middle;" vertex="1" parent="1">
          <mxGeometry x="-815" y="-2218.75" width="120" height="60" as="geometry" />
        </mxCell>
        <mxCell id="hXWdCOX5dW75Eq7yHCM4-159" value="&lt;b&gt;Job&lt;/b&gt;" style="rounded=0;whiteSpace=wrap;html=1;fillColor=#dae8fc;strokeColor=#6c8ebf;align=center;verticalAlign=middle;" vertex="1" parent="1">
          <mxGeometry x="-815" y="-1980" width="120" height="60" as="geometry" />
        </mxCell>
        <mxCell id="hXWdCOX5dW75Eq7yHCM4-513" style="edgeStyle=orthogonalEdgeStyle;rounded=0;orthogonalLoop=1;jettySize=auto;html=1;startArrow=none;startFill=0;endArrow=none;endFill=0;fontSize=21;align=center;verticalAlign=middle;" edge="1" parent="1" source="hXWdCOX5dW75Eq7yHCM4-173">
          <mxGeometry relative="1" as="geometry">
            <mxPoint x="-300" y="-2260" as="targetPoint" />
            <Array as="points">
              <mxPoint x="-300" y="-2260" />
              <mxPoint x="-300" y="-2260" />
            </Array>
          </mxGeometry>
        </mxCell>
        <mxCell id="hXWdCOX5dW75Eq7yHCM4-518" style="edgeStyle=orthogonalEdgeStyle;rounded=0;orthogonalLoop=1;jettySize=auto;html=1;exitX=0.5;exitY=1;exitDx=0;exitDy=0;startArrow=none;startFill=0;endArrow=none;endFill=0;fontSize=21;shape=link;align=center;verticalAlign=middle;" edge="1" parent="1" source="hXWdCOX5dW75Eq7yHCM4-173" target="hXWdCOX5dW75Eq7yHCM4-174">
          <mxGeometry relative="1" as="geometry" />
        </mxCell>
        <mxCell id="hXWdCOX5dW75Eq7yHCM4-173" value="&lt;b&gt;Department&lt;/b&gt;" style="rounded=0;whiteSpace=wrap;html=1;fillColor=#dae8fc;strokeColor=#6c8ebf;align=center;verticalAlign=middle;" vertex="1" parent="1">
          <mxGeometry x="-360" y="-2218.75" width="120" height="60" as="geometry" />
        </mxCell>
        <mxCell id="hXWdCOX5dW75Eq7yHCM4-504" style="edgeStyle=orthogonalEdgeStyle;rounded=0;orthogonalLoop=1;jettySize=auto;html=1;exitX=0.5;exitY=1;exitDx=0;exitDy=0;startArrow=none;startFill=0;endArrow=none;endFill=0;fontSize=21;align=center;verticalAlign=middle;" edge="1" parent="1" source="hXWdCOX5dW75Eq7yHCM4-174">
          <mxGeometry relative="1" as="geometry">
            <mxPoint x="-299.8571428571429" y="-1880" as="targetPoint" />
          </mxGeometry>
        </mxCell>
        <mxCell id="hXWdCOX5dW75Eq7yHCM4-174" value="&lt;b&gt;Department Manager&lt;/b&gt;" style="rounded=0;whiteSpace=wrap;html=1;fillColor=#dae8fc;strokeColor=#6c8ebf;align=center;verticalAlign=middle;" vertex="1" parent="1">
          <mxGeometry x="-360" y="-1980" width="120" height="60" as="geometry" />
        </mxCell>
        <mxCell id="hXWdCOX5dW75Eq7yHCM4-223" value="CurrentSalary" style="shape=partialRectangle;html=1;whiteSpace=wrap;connectable=0;fillColor=none;top=0;left=0;bottom=0;right=0;align=center;spacingLeft=6;overflow=hidden;verticalAlign=middle;" vertex="1" parent="1">
          <mxGeometry x="-945" y="-992" width="140" height="30" as="geometry" />
        </mxCell>
        <mxCell id="hXWdCOX5dW75Eq7yHCM4-236" value="&lt;span style=&quot;color: rgba(0 , 0 , 0 , 0) ; font-family: monospace ; font-size: 0px&quot;&gt;%3CmxGraphModel%3E%3Croot%3E%3CmxCell%20id%3D%220%22%2F%3E%3CmxCell%20id%3D%221%22%20parent%3D%220%22%2F%3E%3CmxCell%20id%3D%222%22%20value%3D%22%26lt%3Bspan%20style%3D%26quot%3Btext-align%3A%20center%26quot%3B%26gt%3BManagingEndDate%26lt%3B%2Fspan%26gt%3B%22%20style%3D%22shape%3DpartialRectangle%3Bhtml%3D1%3BwhiteSpace%3Dwrap%3Bconnectable%3D0%3BfillColor%3Dnone%3Btop%3D0%3Bleft%3D0%3Bbottom%3D0%3Bright%3D0%3Balign%3Dleft%3BspacingLeft%3D6%3Boverflow%3Dhidden%3B%22%20vertex%3D%221%22%20parent%3D%221%22%3E%3CmxGeometry%20x%3D%22530%22%20y%3D%22-845%22%20width%3D%22140%22%20height%3D%2220%22%20as%3D%22geometry%22%2F%3E%3C%2FmxCell%3E%3C%2Froot%3E%3C%2FmxGraphModel%3E&lt;/span&gt;&lt;span style=&quot;color: rgba(0 , 0 , 0 , 0) ; font-family: monospace ; font-size: 0px&quot;&gt;%3CmxGraphModel%3E%3Croot%3E%3CmxCell%20id%3D%220%22%2F%3E%3CmxCell%20id%3D%221%22%20parent%3D%220%22%2F%3E%3CmxCell%20id%3D%222%22%20value%3D%22%26lt%3Bspan%20style%3D%26quot%3Btext-align%3A%20center%26quot%3B%26gt%3BManagingEndDate%26lt%3B%2Fspan%26gt%3B%22%20style%3D%22shape%3DpartialRectangle%3Bhtml%3D1%3BwhiteSpace%3Dwrap%3Bconnectable%3D0%3BfillColor%3Dnone%3Btop%3D0%3Bleft%3D0%3Bbottom%3D0%3Bright%3D0%3Balign%3Dleft%3BspacingLeft%3D6%3Boverflow%3Dhidden%3B%22%20vertex%3D%221%22%20parent%3D%221%22%3E%3CmxGeometry%20x%3D%22530%22%20y%3D%22-845%22%20width%3D%22140%22%20height%3D%2220%22%20as%3D%22geometry%22%2F%3E%3C%2FmxCell%3E%3C%2Froot%3E%3C%2FmxGraphModel%3E&lt;/span&gt;" style="text;html=1;align=center;verticalAlign=middle;resizable=0;points=[];autosize=1;shadow=0;" vertex="1" parent="1">
          <mxGeometry x="-615" y="-1070" width="20" height="20" as="geometry" />
        </mxCell>
        <mxCell id="hXWdCOX5dW75Eq7yHCM4-237" value="&lt;span style=&quot;&quot;&gt;ManagingEndDate&lt;/span&gt;" style="shape=partialRectangle;html=1;whiteSpace=wrap;connectable=0;fillColor=none;top=0;left=0;bottom=0;right=0;align=center;spacingLeft=6;overflow=hidden;shadow=0;verticalAlign=middle;" vertex="1" parent="1">
          <mxGeometry x="-655" y="-1080" width="140" height="23" as="geometry" />
        </mxCell>
        <mxCell id="hXWdCOX5dW75Eq7yHCM4-238" value="FK" style="text;html=1;align=center;verticalAlign=middle;resizable=0;points=[];autosize=1;" vertex="1" parent="1">
          <mxGeometry x="-985" y="-1022" width="30" height="20" as="geometry" />
        </mxCell>
        <mxCell id="hXWdCOX5dW75Eq7yHCM4-239" style="edgeStyle=orthogonalEdgeStyle;rounded=0;orthogonalLoop=1;jettySize=auto;html=1;entryX=0;entryY=0.5;entryDx=0;entryDy=0;startArrow=ERoneToMany;startFill=0;endArrow=ERoneToMany;endFill=0;align=center;verticalAlign=middle;" edge="1" parent="1" target="hXWdCOX5dW75Eq7yHCM4-34">
          <mxGeometry relative="1" as="geometry">
            <mxPoint x="-805" y="-1007" as="sourcePoint" />
            <Array as="points">
              <mxPoint x="-805" y="-1007" />
              <mxPoint x="-745" y="-1007" />
            </Array>
          </mxGeometry>
        </mxCell>
        <mxCell id="hXWdCOX5dW75Eq7yHCM4-255" style="edgeStyle=orthogonalEdgeStyle;rounded=0;orthogonalLoop=1;jettySize=auto;html=1;exitX=0;exitY=0.5;exitDx=0;exitDy=0;startArrow=ERzeroToMany;startFill=1;endArrow=ERzeroToMany;endFill=1;align=center;verticalAlign=middle;" edge="1" parent="1" source="hXWdCOX5dW75Eq7yHCM4-57">
          <mxGeometry relative="1" as="geometry">
            <mxPoint x="-985" y="-1037" as="targetPoint" />
            <Array as="points">
              <mxPoint x="-1025" y="-1570" />
              <mxPoint x="-1025" y="-1037" />
            </Array>
          </mxGeometry>
        </mxCell>
        <mxCell id="hXWdCOX5dW75Eq7yHCM4-257" style="edgeStyle=orthogonalEdgeStyle;rounded=0;orthogonalLoop=1;jettySize=auto;html=1;exitX=1;exitY=0.5;exitDx=0;exitDy=0;startArrow=ERzeroToMany;startFill=1;endArrow=ERoneToMany;endFill=0;entryX=1;entryY=0.5;entryDx=0;entryDy=0;align=center;verticalAlign=middle;" edge="1" parent="1" source="hXWdCOX5dW75Eq7yHCM4-34" target="hXWdCOX5dW75Eq7yHCM4-44">
          <mxGeometry relative="1" as="geometry">
            <mxPoint x="-465" y="-1227" as="targetPoint" />
            <Array as="points">
              <mxPoint x="-485" y="-937" />
              <mxPoint x="-485" y="-1152" />
            </Array>
          </mxGeometry>
        </mxCell>
        <mxCell id="hXWdCOX5dW75Eq7yHCM4-258" value="" style="shape=partialRectangle;html=1;whiteSpace=wrap;connectable=0;fillColor=none;top=0;left=0;bottom=0;right=0;align=center;spacingLeft=6;overflow=hidden;verticalAlign=middle;" vertex="1" parent="1">
          <mxGeometry x="-655" y="-1077" width="140" height="80" as="geometry" />
        </mxCell>
        <mxCell id="hXWdCOX5dW75Eq7yHCM4-262" value="FK" style="text;html=1;align=center;verticalAlign=middle;resizable=0;points=[];autosize=1;shadow=0;" vertex="1" parent="1">
          <mxGeometry x="-695" y="-1129.5" width="30" height="20" as="geometry" />
        </mxCell>
        <mxCell id="hXWdCOX5dW75Eq7yHCM4-266" style="edgeStyle=orthogonalEdgeStyle;rounded=0;orthogonalLoop=1;jettySize=auto;html=1;exitX=1;exitY=0.5;exitDx=0;exitDy=0;entryX=0.033;entryY=0.575;entryDx=0;entryDy=0;entryPerimeter=0;startArrow=ERoneToMany;startFill=0;endArrow=ERoneToMany;endFill=0;align=center;verticalAlign=middle;" edge="1" parent="1" source="hXWdCOX5dW75Eq7yHCM4-24" target="hXWdCOX5dW75Eq7yHCM4-262">
          <mxGeometry relative="1" as="geometry" />
        </mxCell>
        <mxCell id="hXWdCOX5dW75Eq7yHCM4-287" value="SalaryRecord" style="shape=table;html=1;whiteSpace=wrap;startSize=30;container=1;collapsible=0;childLayout=tableLayout;fixedRows=1;rowLines=0;fontStyle=1;align=center;shadow=0;fillColor=#b1ddf0;strokeColor=#10739e;verticalAlign=middle;" vertex="1" parent="1">
          <mxGeometry x="-695" y="-1380" width="180" height="167" as="geometry" />
        </mxCell>
        <mxCell id="hXWdCOX5dW75Eq7yHCM4-288" value="" style="shape=partialRectangle;html=1;whiteSpace=wrap;collapsible=0;dropTarget=0;pointerEvents=0;fillColor=none;top=0;left=0;bottom=1;right=0;points=[[0,0.5],[1,0.5]];portConstraint=eastwest;shadow=0;align=center;verticalAlign=middle;" vertex="1" parent="hXWdCOX5dW75Eq7yHCM4-287">
          <mxGeometry y="30" width="180" height="30" as="geometry" />
        </mxCell>
        <mxCell id="hXWdCOX5dW75Eq7yHCM4-289" value="FK" style="shape=partialRectangle;html=1;whiteSpace=wrap;connectable=0;fillColor=none;top=0;left=0;bottom=0;right=0;overflow=hidden;shadow=0;align=center;verticalAlign=middle;" vertex="1" parent="hXWdCOX5dW75Eq7yHCM4-288">
          <mxGeometry width="40" height="30" as="geometry" />
        </mxCell>
        <mxCell id="hXWdCOX5dW75Eq7yHCM4-290" value="EmployeeID" style="shape=partialRectangle;html=1;whiteSpace=wrap;connectable=0;fillColor=none;top=0;left=0;bottom=0;right=0;align=center;spacingLeft=6;overflow=hidden;shadow=0;verticalAlign=middle;" vertex="1" parent="hXWdCOX5dW75Eq7yHCM4-288">
          <mxGeometry x="40" width="140" height="30" as="geometry" />
        </mxCell>
        <mxCell id="hXWdCOX5dW75Eq7yHCM4-291" value="" style="shape=partialRectangle;html=1;whiteSpace=wrap;collapsible=0;dropTarget=0;pointerEvents=0;fillColor=none;top=0;left=0;bottom=0;right=0;points=[[0,0.5],[1,0.5]];portConstraint=eastwest;shadow=0;align=center;verticalAlign=middle;" vertex="1" parent="hXWdCOX5dW75Eq7yHCM4-287">
          <mxGeometry y="60" width="180" height="30" as="geometry" />
        </mxCell>
        <mxCell id="hXWdCOX5dW75Eq7yHCM4-292" value="" style="shape=partialRectangle;html=1;whiteSpace=wrap;connectable=0;fillColor=none;top=0;left=0;bottom=0;right=0;overflow=hidden;shadow=0;align=center;verticalAlign=middle;" vertex="1" parent="hXWdCOX5dW75Eq7yHCM4-291">
          <mxGeometry width="40" height="30" as="geometry" />
        </mxCell>
        <mxCell id="hXWdCOX5dW75Eq7yHCM4-293" value="StartSalary" style="shape=partialRectangle;html=1;whiteSpace=wrap;connectable=0;fillColor=none;top=0;left=0;bottom=0;right=0;align=center;spacingLeft=6;overflow=hidden;shadow=0;verticalAlign=middle;" vertex="1" parent="hXWdCOX5dW75Eq7yHCM4-291">
          <mxGeometry x="40" width="140" height="30" as="geometry" />
        </mxCell>
        <mxCell id="hXWdCOX5dW75Eq7yHCM4-294" value="" style="shape=partialRectangle;html=1;whiteSpace=wrap;collapsible=0;dropTarget=0;pointerEvents=0;fillColor=none;top=0;left=0;bottom=0;right=0;points=[[0,0.5],[1,0.5]];portConstraint=eastwest;shadow=0;align=center;verticalAlign=middle;" vertex="1" parent="hXWdCOX5dW75Eq7yHCM4-287">
          <mxGeometry y="90" width="180" height="37" as="geometry" />
        </mxCell>
        <mxCell id="hXWdCOX5dW75Eq7yHCM4-295" value="" style="shape=partialRectangle;html=1;whiteSpace=wrap;connectable=0;fillColor=none;top=0;left=0;bottom=0;right=0;overflow=hidden;shadow=0;align=center;verticalAlign=middle;" vertex="1" parent="hXWdCOX5dW75Eq7yHCM4-294">
          <mxGeometry width="40" height="37" as="geometry" />
        </mxCell>
        <mxCell id="hXWdCOX5dW75Eq7yHCM4-296" value="" style="shape=partialRectangle;html=1;whiteSpace=wrap;connectable=0;fillColor=none;top=0;left=0;bottom=0;right=0;align=center;spacingLeft=6;overflow=hidden;shadow=0;verticalAlign=middle;" vertex="1" parent="hXWdCOX5dW75Eq7yHCM4-294">
          <mxGeometry x="40" width="140" height="37" as="geometry" />
        </mxCell>
        <mxCell id="hXWdCOX5dW75Eq7yHCM4-297" value="&lt;span style=&quot;&quot;&gt;CurrentSalary&lt;/span&gt;" style="shape=partialRectangle;html=1;whiteSpace=wrap;connectable=0;fillColor=none;top=0;left=0;bottom=0;right=0;align=center;spacingLeft=6;overflow=hidden;shadow=0;verticalAlign=middle;" vertex="1" parent="1">
          <mxGeometry x="-655" y="-1290" width="140" height="30" as="geometry" />
        </mxCell>
        <mxCell id="hXWdCOX5dW75Eq7yHCM4-298" value="&lt;span style=&quot;color: rgba(0 , 0 , 0 , 0) ; font-family: monospace ; font-size: 0px&quot;&gt;%3CmxGraphModel%3E%3Croot%3E%3CmxCell%20id%3D%220%22%2F%3E%3CmxCell%20id%3D%221%22%20parent%3D%220%22%2F%3E%3CmxCell%20id%3D%222%22%20value%3D%22%26lt%3Bspan%20style%3D%26quot%3Btext-align%3A%20center%26quot%3B%26gt%3BManagingEndDate%26lt%3B%2Fspan%26gt%3B%22%20style%3D%22shape%3DpartialRectangle%3Bhtml%3D1%3BwhiteSpace%3Dwrap%3Bconnectable%3D0%3BfillColor%3Dnone%3Btop%3D0%3Bleft%3D0%3Bbottom%3D0%3Bright%3D0%3Balign%3Dleft%3BspacingLeft%3D6%3Boverflow%3Dhidden%3B%22%20vertex%3D%221%22%20parent%3D%221%22%3E%3CmxGeometry%20x%3D%22530%22%20y%3D%22-845%22%20width%3D%22140%22%20height%3D%2220%22%20as%3D%22geometry%22%2F%3E%3C%2FmxCell%3E%3C%2Froot%3E%3C%2FmxGraphModel%3E&lt;/span&gt;&lt;span style=&quot;color: rgba(0 , 0 , 0 , 0) ; font-family: monospace ; font-size: 0px&quot;&gt;%3CmxGraphModel%3E%3Croot%3E%3CmxCell%20id%3D%220%22%2F%3E%3CmxCell%20id%3D%221%22%20parent%3D%220%22%2F%3E%3CmxCell%20id%3D%222%22%20value%3D%22%26lt%3Bspan%20style%3D%26quot%3Btext-align%3A%20center%26quot%3B%26gt%3BManagingEndDate%26lt%3B%2Fspan%26gt%3B%22%20style%3D%22shape%3DpartialRectangle%3Bhtml%3D1%3BwhiteSpace%3Dwrap%3Bconnectable%3D0%3BfillColor%3Dnone%3Btop%3D0%3Bleft%3D0%3Bbottom%3D0%3Bright%3D0%3Balign%3Dleft%3BspacingLeft%3D6%3Boverflow%3Dhidden%3B%22%20vertex%3D%221%22%20parent%3D%221%22%3E%3CmxGeometry%20x%3D%22530%22%20y%3D%22-845%22%20width%3D%22140%22%20height%3D%2220%22%20as%3D%22geometry%22%2F%3E%3C%2FmxCell%3E%3C%2Froot%3E%3C%2FmxGraphModel%3E&lt;/span&gt;" style="text;html=1;align=center;verticalAlign=middle;resizable=0;points=[];autosize=1;shadow=0;" vertex="1" parent="1">
          <mxGeometry x="-835" y="-1410" width="20" height="20" as="geometry" />
        </mxCell>
        <mxCell id="hXWdCOX5dW75Eq7yHCM4-301" style="edgeStyle=orthogonalEdgeStyle;rounded=0;orthogonalLoop=1;jettySize=auto;html=1;exitX=0;exitY=0.5;exitDx=0;exitDy=0;entryX=0;entryY=0.5;entryDx=0;entryDy=0;startArrow=ERone;startFill=0;endArrow=ERoneToMany;endFill=0;align=center;verticalAlign=middle;" edge="1" parent="1" source="hXWdCOX5dW75Eq7yHCM4-24" target="hXWdCOX5dW75Eq7yHCM4-288">
          <mxGeometry relative="1" as="geometry" />
        </mxCell>
        <mxCell id="hXWdCOX5dW75Eq7yHCM4-302" value="Entity Relationship Diagram - Crow&#39;s Foot&amp;nbsp; Notation" style="text;html=1;align=center;verticalAlign=middle;resizable=0;points=[];autosize=1;fillColor=#dae8fc;strokeColor=#6c8ebf;strokeWidth=5;fontSize=21;fontStyle=1" vertex="1" parent="1">
          <mxGeometry x="-1075" y="-1670" width="530" height="30" as="geometry" />
        </mxCell>
        <mxCell id="hXWdCOX5dW75Eq7yHCM4-450" value="" style="endArrow=none;html=1;fontSize=21;align=center;verticalAlign=middle;" edge="1" parent="1">
          <mxGeometry width="50" height="50" relative="1" as="geometry">
            <mxPoint x="-895" y="-2000" as="sourcePoint" />
            <mxPoint x="-895" y="-2370" as="targetPoint" />
          </mxGeometry>
        </mxCell>
        <mxCell id="hXWdCOX5dW75Eq7yHCM4-483" style="edgeStyle=orthogonalEdgeStyle;rounded=0;orthogonalLoop=1;jettySize=auto;html=1;exitX=1;exitY=0.5;exitDx=0;exitDy=0;startArrow=none;startFill=0;endArrow=none;endFill=0;fontSize=21;align=center;verticalAlign=middle;" edge="1" parent="1" source="hXWdCOX5dW75Eq7yHCM4-462">
          <mxGeometry relative="1" as="geometry">
            <mxPoint x="-895" y="-2369.9767441860467" as="targetPoint" />
          </mxGeometry>
        </mxCell>
        <mxCell id="hXWdCOX5dW75Eq7yHCM4-462" value="&lt;span style=&quot;font-size: 12px;&quot;&gt;FirstName&lt;/span&gt;" style="ellipse;whiteSpace=wrap;html=1;shadow=0;labelBackgroundColor=none;strokeColor=#000000;strokeWidth=1;fillColor=#FFFFFF;gradientColor=#ffffff;fontSize=21;align=center;verticalAlign=middle;" vertex="1" parent="1">
          <mxGeometry x="-1065" y="-2390" width="120" height="40" as="geometry" />
        </mxCell>
        <mxCell id="hXWdCOX5dW75Eq7yHCM4-482" style="edgeStyle=orthogonalEdgeStyle;rounded=0;orthogonalLoop=1;jettySize=auto;html=1;exitX=1;exitY=0.5;exitDx=0;exitDy=0;startArrow=none;startFill=0;endArrow=none;endFill=0;fontSize=21;align=center;verticalAlign=middle;" edge="1" parent="1" source="hXWdCOX5dW75Eq7yHCM4-463">
          <mxGeometry relative="1" as="geometry">
            <mxPoint x="-895" y="-2323" as="targetPoint" />
          </mxGeometry>
        </mxCell>
        <mxCell id="hXWdCOX5dW75Eq7yHCM4-463" value="&lt;div style=&quot;&quot;&gt;&lt;span style=&quot;font-size: 12px&quot;&gt;LastName&lt;/span&gt;&lt;/div&gt;" style="ellipse;whiteSpace=wrap;html=1;shadow=0;labelBackgroundColor=none;strokeColor=#000000;strokeWidth=1;fillColor=#FFFFFF;gradientColor=#ffffff;fontSize=21;align=center;verticalAlign=middle;" vertex="1" parent="1">
          <mxGeometry x="-1065" y="-2343" width="120" height="40" as="geometry" />
        </mxCell>
        <mxCell id="hXWdCOX5dW75Eq7yHCM4-481" style="edgeStyle=orthogonalEdgeStyle;rounded=0;orthogonalLoop=1;jettySize=auto;html=1;exitX=1;exitY=0.5;exitDx=0;exitDy=0;startArrow=none;startFill=0;endArrow=none;endFill=0;fontSize=21;align=center;verticalAlign=middle;" edge="1" parent="1" source="hXWdCOX5dW75Eq7yHCM4-464">
          <mxGeometry relative="1" as="geometry">
            <mxPoint x="-895" y="-2279.5116279069766" as="targetPoint" />
          </mxGeometry>
        </mxCell>
        <mxCell id="hXWdCOX5dW75Eq7yHCM4-464" value="&lt;span style=&quot;font-size: 12px;&quot;&gt;BirthDate&lt;/span&gt;" style="ellipse;whiteSpace=wrap;html=1;shadow=0;labelBackgroundColor=none;strokeColor=#000000;strokeWidth=1;fillColor=#FFFFFF;gradientColor=#ffffff;fontSize=21;align=center;verticalAlign=middle;" vertex="1" parent="1">
          <mxGeometry x="-1065" y="-2299.5" width="120" height="40" as="geometry" />
        </mxCell>
        <mxCell id="hXWdCOX5dW75Eq7yHCM4-480" style="edgeStyle=orthogonalEdgeStyle;rounded=0;orthogonalLoop=1;jettySize=auto;html=1;exitX=1;exitY=0.5;exitDx=0;exitDy=0;startArrow=none;startFill=0;endArrow=none;endFill=0;fontSize=21;align=center;verticalAlign=middle;" edge="1" parent="1" source="hXWdCOX5dW75Eq7yHCM4-465">
          <mxGeometry relative="1" as="geometry">
            <mxPoint x="-895" y="-2232.5348837209303" as="targetPoint" />
          </mxGeometry>
        </mxCell>
        <mxCell id="hXWdCOX5dW75Eq7yHCM4-465" value="&lt;span style=&quot;font-size: 12px;&quot;&gt;Gender&lt;/span&gt;" style="ellipse;whiteSpace=wrap;html=1;shadow=0;labelBackgroundColor=none;strokeColor=#000000;strokeWidth=1;fillColor=#FFFFFF;gradientColor=#ffffff;fontSize=21;align=center;verticalAlign=middle;" vertex="1" parent="1">
          <mxGeometry x="-1065" y="-2252.5" width="120" height="40" as="geometry" />
        </mxCell>
        <mxCell id="hXWdCOX5dW75Eq7yHCM4-479" style="edgeStyle=orthogonalEdgeStyle;rounded=0;orthogonalLoop=1;jettySize=auto;html=1;exitX=1;exitY=0.5;exitDx=0;exitDy=0;startArrow=none;startFill=0;endArrow=none;endFill=0;fontSize=21;entryX=0;entryY=0.5;entryDx=0;entryDy=0;align=center;verticalAlign=middle;" edge="1" parent="1" source="hXWdCOX5dW75Eq7yHCM4-466" target="hXWdCOX5dW75Eq7yHCM4-118">
          <mxGeometry relative="1" as="geometry">
            <mxPoint x="-895" y="-2188.813953488372" as="targetPoint" />
          </mxGeometry>
        </mxCell>
        <mxCell id="hXWdCOX5dW75Eq7yHCM4-466" value="&lt;span style=&quot;font-size: 12px;&quot;&gt;EmployeeID&lt;/span&gt;" style="ellipse;whiteSpace=wrap;html=1;shadow=0;labelBackgroundColor=none;strokeColor=#9673a6;strokeWidth=1;fillColor=#e1d5e7;fontSize=21;align=center;verticalAlign=middle;" vertex="1" parent="1">
          <mxGeometry x="-1065" y="-2208.75" width="120" height="40" as="geometry" />
        </mxCell>
        <mxCell id="hXWdCOX5dW75Eq7yHCM4-478" style="edgeStyle=orthogonalEdgeStyle;rounded=0;orthogonalLoop=1;jettySize=auto;html=1;exitX=1;exitY=0.5;exitDx=0;exitDy=0;startArrow=none;startFill=0;endArrow=none;endFill=0;fontSize=21;align=center;verticalAlign=middle;" edge="1" parent="1" source="hXWdCOX5dW75Eq7yHCM4-467">
          <mxGeometry relative="1" as="geometry">
            <mxPoint x="-895" y="-2141.8372093023254" as="targetPoint" />
          </mxGeometry>
        </mxCell>
        <mxCell id="hXWdCOX5dW75Eq7yHCM4-467" value="&lt;span style=&quot;font-size: 12px;&quot;&gt;HireDate&lt;/span&gt;" style="ellipse;whiteSpace=wrap;html=1;shadow=0;labelBackgroundColor=none;strokeColor=#000000;strokeWidth=1;fillColor=#FFFFFF;gradientColor=#ffffff;fontSize=21;align=center;verticalAlign=middle;" vertex="1" parent="1">
          <mxGeometry x="-1065" y="-2161.75" width="120" height="40" as="geometry" />
        </mxCell>
        <mxCell id="hXWdCOX5dW75Eq7yHCM4-475" style="edgeStyle=orthogonalEdgeStyle;rounded=0;orthogonalLoop=1;jettySize=auto;html=1;exitX=1;exitY=0.5;exitDx=0;exitDy=0;startArrow=none;startFill=0;endArrow=none;endFill=0;fontSize=21;align=center;verticalAlign=middle;" edge="1" parent="1" source="hXWdCOX5dW75Eq7yHCM4-468">
          <mxGeometry relative="1" as="geometry">
            <mxPoint x="-895" y="-2098.3488372093025" as="targetPoint" />
          </mxGeometry>
        </mxCell>
        <mxCell id="hXWdCOX5dW75Eq7yHCM4-468" value="&lt;span style=&quot;font-size: 12px;&quot;&gt;CurrentJobTitle&lt;/span&gt;" style="ellipse;whiteSpace=wrap;html=1;shadow=0;labelBackgroundColor=none;strokeColor=#000000;strokeWidth=1;fillColor=#FFFFFF;gradientColor=#ffffff;fontSize=21;align=center;verticalAlign=middle;" vertex="1" parent="1">
          <mxGeometry x="-1065" y="-2118.25" width="120" height="40" as="geometry" />
        </mxCell>
        <mxCell id="hXWdCOX5dW75Eq7yHCM4-472" style="edgeStyle=orthogonalEdgeStyle;rounded=0;orthogonalLoop=1;jettySize=auto;html=1;exitX=1;exitY=0.5;exitDx=0;exitDy=0;startArrow=none;startFill=0;endArrow=none;endFill=0;fontSize=21;align=center;verticalAlign=middle;" edge="1" parent="1" source="hXWdCOX5dW75Eq7yHCM4-469">
          <mxGeometry relative="1" as="geometry">
            <mxPoint x="-895" y="-2051.1666666666665" as="targetPoint" />
          </mxGeometry>
        </mxCell>
        <mxCell id="hXWdCOX5dW75Eq7yHCM4-469" value="&lt;span style=&quot;font-size: 12px;&quot;&gt;DepartmentID&lt;/span&gt;" style="ellipse;whiteSpace=wrap;html=1;shadow=0;labelBackgroundColor=none;strokeColor=#b85450;strokeWidth=1;fillColor=#f8cecc;fontSize=21;align=center;verticalAlign=middle;" vertex="1" parent="1">
          <mxGeometry x="-1065" y="-2071.25" width="120" height="40" as="geometry" />
        </mxCell>
        <mxCell id="hXWdCOX5dW75Eq7yHCM4-471" style="edgeStyle=orthogonalEdgeStyle;rounded=0;orthogonalLoop=1;jettySize=auto;html=1;exitX=1;exitY=0.5;exitDx=0;exitDy=0;startArrow=none;startFill=0;endArrow=none;endFill=0;fontSize=21;align=center;verticalAlign=middle;" edge="1" parent="1" source="hXWdCOX5dW75Eq7yHCM4-470">
          <mxGeometry relative="1" as="geometry">
            <mxPoint x="-895" y="-2000" as="targetPoint" />
          </mxGeometry>
        </mxCell>
        <mxCell id="hXWdCOX5dW75Eq7yHCM4-470" value="&lt;span style=&quot;font-size: 12px;&quot;&gt;CurrentSalary&lt;/span&gt;" style="ellipse;whiteSpace=wrap;html=1;shadow=0;labelBackgroundColor=none;strokeColor=#000000;strokeWidth=1;fillColor=#FFFFFF;gradientColor=#ffffff;fontSize=21;align=center;verticalAlign=middle;" vertex="1" parent="1">
          <mxGeometry x="-1065" y="-2020" width="120" height="40" as="geometry" />
        </mxCell>
        <mxCell id="hXWdCOX5dW75Eq7yHCM4-498" style="edgeStyle=orthogonalEdgeStyle;rounded=0;orthogonalLoop=1;jettySize=auto;html=1;startArrow=none;startFill=0;endArrow=none;endFill=0;fontSize=21;align=center;verticalAlign=middle;" edge="1" parent="1" source="hXWdCOX5dW75Eq7yHCM4-485">
          <mxGeometry relative="1" as="geometry">
            <mxPoint x="-635" y="-1880" as="targetPoint" />
          </mxGeometry>
        </mxCell>
        <mxCell id="hXWdCOX5dW75Eq7yHCM4-485" value="&lt;span style=&quot;font-size: 12px;&quot;&gt;EndDate&lt;/span&gt;" style="ellipse;whiteSpace=wrap;html=1;shadow=0;labelBackgroundColor=none;strokeColor=#000000;strokeWidth=1;fillColor=#FFFFFF;gradientColor=#ffffff;fontSize=21;align=center;verticalAlign=middle;" vertex="1" parent="1">
          <mxGeometry x="-695" y="-1850" width="120" height="40" as="geometry" />
        </mxCell>
        <mxCell id="hXWdCOX5dW75Eq7yHCM4-497" style="edgeStyle=orthogonalEdgeStyle;rounded=0;orthogonalLoop=1;jettySize=auto;html=1;startArrow=none;startFill=0;endArrow=none;endFill=0;fontSize=21;align=center;verticalAlign=middle;" edge="1" parent="1" source="hXWdCOX5dW75Eq7yHCM4-486">
          <mxGeometry relative="1" as="geometry">
            <mxPoint x="-764" y="-1920" as="targetPoint" />
            <Array as="points">
              <mxPoint x="-765" y="-1920" />
              <mxPoint x="-764" y="-1920" />
            </Array>
          </mxGeometry>
        </mxCell>
        <mxCell id="hXWdCOX5dW75Eq7yHCM4-486" value="&lt;span style=&quot;font-size: 12px;&quot;&gt;StartDate&lt;/span&gt;" style="ellipse;whiteSpace=wrap;html=1;shadow=0;labelBackgroundColor=none;strokeColor=#000000;strokeWidth=1;fillColor=#FFFFFF;gradientColor=#ffffff;fontSize=21;align=center;verticalAlign=middle;" vertex="1" parent="1">
          <mxGeometry x="-825" y="-1850" width="120" height="40" as="geometry" />
        </mxCell>
        <mxCell id="hXWdCOX5dW75Eq7yHCM4-496" style="edgeStyle=orthogonalEdgeStyle;rounded=0;orthogonalLoop=1;jettySize=auto;html=1;startArrow=none;startFill=0;endArrow=none;endFill=0;fontSize=21;align=center;verticalAlign=middle;" edge="1" parent="1" source="hXWdCOX5dW75Eq7yHCM4-487">
          <mxGeometry relative="1" as="geometry">
            <mxPoint x="-895" y="-1880" as="targetPoint" />
          </mxGeometry>
        </mxCell>
        <mxCell id="hXWdCOX5dW75Eq7yHCM4-487" value="&lt;span style=&quot;font-size: 12px;&quot;&gt;PreviousJobTitle&lt;/span&gt;" style="ellipse;whiteSpace=wrap;html=1;shadow=0;labelBackgroundColor=none;strokeColor=#000000;strokeWidth=1;fillColor=#FFFFFF;gradientColor=#ffffff;fontSize=21;align=center;verticalAlign=middle;" vertex="1" parent="1">
          <mxGeometry x="-955" y="-1850" width="120" height="40" as="geometry" />
        </mxCell>
        <mxCell id="hXWdCOX5dW75Eq7yHCM4-502" style="edgeStyle=orthogonalEdgeStyle;rounded=0;orthogonalLoop=1;jettySize=auto;html=1;exitX=0.5;exitY=0;exitDx=0;exitDy=0;startArrow=none;startFill=0;endArrow=none;endFill=0;fontSize=21;align=center;verticalAlign=middle;" edge="1" parent="1" source="hXWdCOX5dW75Eq7yHCM4-488">
          <mxGeometry relative="1" as="geometry">
            <mxPoint x="-225" y="-1880" as="targetPoint" />
          </mxGeometry>
        </mxCell>
        <mxCell id="hXWdCOX5dW75Eq7yHCM4-488" value="&lt;span style=&quot;font-size: 12px&quot;&gt;ManagingStartDate&lt;/span&gt;" style="ellipse;whiteSpace=wrap;html=1;shadow=0;labelBackgroundColor=none;strokeColor=#000000;strokeWidth=1;fillColor=#FFFFFF;gradientColor=#ffffff;fontSize=21;align=center;verticalAlign=middle;" vertex="1" parent="1">
          <mxGeometry x="-285" y="-1850" width="120" height="40" as="geometry" />
        </mxCell>
        <mxCell id="hXWdCOX5dW75Eq7yHCM4-501" style="edgeStyle=orthogonalEdgeStyle;rounded=0;orthogonalLoop=1;jettySize=auto;html=1;exitX=0.5;exitY=0;exitDx=0;exitDy=0;startArrow=none;startFill=0;endArrow=none;endFill=0;fontSize=21;align=center;verticalAlign=middle;" edge="1" parent="1" source="hXWdCOX5dW75Eq7yHCM4-489">
          <mxGeometry relative="1" as="geometry">
            <mxPoint x="-354.7142857142858" y="-1880" as="targetPoint" />
          </mxGeometry>
        </mxCell>
        <mxCell id="hXWdCOX5dW75Eq7yHCM4-489" value="&lt;span style=&quot;font-size: 12px;&quot;&gt;EmployeeID&lt;/span&gt;" style="ellipse;whiteSpace=wrap;html=1;shadow=0;labelBackgroundColor=none;strokeColor=#000000;strokeWidth=1;fillColor=#FFFFFF;gradientColor=#ffffff;fontSize=21;align=center;verticalAlign=middle;" vertex="1" parent="1">
          <mxGeometry x="-415" y="-1850" width="120" height="40" as="geometry" />
        </mxCell>
        <mxCell id="hXWdCOX5dW75Eq7yHCM4-500" style="edgeStyle=orthogonalEdgeStyle;rounded=0;orthogonalLoop=1;jettySize=auto;html=1;exitX=0.5;exitY=0;exitDx=0;exitDy=0;startArrow=none;startFill=0;endArrow=none;endFill=0;fontSize=21;align=center;verticalAlign=middle;" edge="1" parent="1" source="hXWdCOX5dW75Eq7yHCM4-490">
          <mxGeometry relative="1" as="geometry">
            <mxPoint x="-485" y="-1880" as="targetPoint" />
          </mxGeometry>
        </mxCell>
        <mxCell id="hXWdCOX5dW75Eq7yHCM4-490" value="&lt;span style=&quot;font-size: 12px;&quot;&gt;DepartmentID&lt;/span&gt;" style="ellipse;whiteSpace=wrap;html=1;shadow=0;labelBackgroundColor=none;strokeColor=#b85450;strokeWidth=1;fillColor=#f8cecc;fontSize=21;align=center;verticalAlign=middle;" vertex="1" parent="1">
          <mxGeometry x="-545" y="-1850" width="120" height="40" as="geometry" />
        </mxCell>
        <mxCell id="hXWdCOX5dW75Eq7yHCM4-503" style="edgeStyle=orthogonalEdgeStyle;rounded=0;orthogonalLoop=1;jettySize=auto;html=1;exitX=0.5;exitY=0;exitDx=0;exitDy=0;startArrow=none;startFill=0;endArrow=none;endFill=0;fontSize=21;align=center;verticalAlign=middle;" edge="1" parent="1" source="hXWdCOX5dW75Eq7yHCM4-491">
          <mxGeometry relative="1" as="geometry">
            <mxPoint x="-94.71428571428578" y="-1880" as="targetPoint" />
          </mxGeometry>
        </mxCell>
        <mxCell id="hXWdCOX5dW75Eq7yHCM4-491" value="&lt;span style=&quot;font-size: 12px&quot;&gt;ManagingEndDate&lt;/span&gt;" style="ellipse;whiteSpace=wrap;html=1;shadow=0;labelBackgroundColor=none;strokeColor=#000000;strokeWidth=1;fillColor=#FFFFFF;gradientColor=#ffffff;fontSize=21;align=center;verticalAlign=middle;" vertex="1" parent="1">
          <mxGeometry x="-155" y="-1850" width="120" height="40" as="geometry" />
        </mxCell>
        <mxCell id="hXWdCOX5dW75Eq7yHCM4-511" style="edgeStyle=orthogonalEdgeStyle;rounded=0;orthogonalLoop=1;jettySize=auto;html=1;exitX=0.5;exitY=1;exitDx=0;exitDy=0;startArrow=none;startFill=0;endArrow=none;endFill=0;fontSize=21;align=center;verticalAlign=middle;" edge="1" parent="1" source="hXWdCOX5dW75Eq7yHCM4-492">
          <mxGeometry relative="1" as="geometry">
            <mxPoint x="-365" y="-2263" as="targetPoint" />
            <Array as="points">
              <mxPoint x="-365" y="-2303" />
            </Array>
          </mxGeometry>
        </mxCell>
        <mxCell id="hXWdCOX5dW75Eq7yHCM4-492" value="&lt;span style=&quot;font-size: 12px;&quot;&gt;DepartmentID&lt;/span&gt;" style="ellipse;whiteSpace=wrap;html=1;shadow=0;labelBackgroundColor=none;strokeColor=#9673a6;strokeWidth=1;fillColor=#e1d5e7;fontSize=21;align=center;verticalAlign=middle;" vertex="1" parent="1">
          <mxGeometry x="-430" y="-2343" width="120" height="40" as="geometry" />
        </mxCell>
        <mxCell id="hXWdCOX5dW75Eq7yHCM4-512" style="edgeStyle=orthogonalEdgeStyle;rounded=0;orthogonalLoop=1;jettySize=auto;html=1;exitX=0.5;exitY=1;exitDx=0;exitDy=0;startArrow=none;startFill=0;endArrow=none;endFill=0;fontSize=21;align=center;verticalAlign=middle;" edge="1" parent="1" source="hXWdCOX5dW75Eq7yHCM4-493">
          <mxGeometry relative="1" as="geometry">
            <mxPoint x="-240" y="-2263" as="targetPoint" />
          </mxGeometry>
        </mxCell>
        <mxCell id="hXWdCOX5dW75Eq7yHCM4-493" value="&lt;span style=&quot;font-size: 12px;&quot;&gt;DepartmentName&lt;/span&gt;" style="ellipse;whiteSpace=wrap;html=1;shadow=0;labelBackgroundColor=none;strokeColor=#000000;strokeWidth=1;fillColor=#FFFFFF;gradientColor=#ffffff;fontSize=21;align=center;verticalAlign=middle;" vertex="1" parent="1">
          <mxGeometry x="-300" y="-2343" width="120" height="40" as="geometry" />
        </mxCell>
        <mxCell id="hXWdCOX5dW75Eq7yHCM4-495" style="edgeStyle=orthogonalEdgeStyle;rounded=0;orthogonalLoop=1;jettySize=auto;html=1;startArrow=none;startFill=0;endArrow=none;endFill=0;fontSize=21;align=center;verticalAlign=middle;" edge="1" parent="1">
          <mxGeometry relative="1" as="geometry">
            <mxPoint x="-635" y="-1880" as="targetPoint" />
            <mxPoint x="-1025" y="-1880" as="sourcePoint" />
            <Array as="points">
              <mxPoint x="-710" y="-1880.3" />
              <mxPoint x="-710" y="-1880.3" />
            </Array>
          </mxGeometry>
        </mxCell>
        <mxCell id="hXWdCOX5dW75Eq7yHCM4-499" style="edgeStyle=orthogonalEdgeStyle;rounded=0;orthogonalLoop=1;jettySize=auto;html=1;startArrow=none;startFill=0;endArrow=none;endFill=0;fontSize=21;align=center;verticalAlign=middle;" edge="1" parent="1">
          <mxGeometry relative="1" as="geometry">
            <mxPoint x="-95" y="-1880" as="targetPoint" />
            <mxPoint x="-485" y="-1880" as="sourcePoint" />
            <Array as="points">
              <mxPoint x="-245" y="-1880.3" />
              <mxPoint x="-245" y="-1880.3" />
            </Array>
          </mxGeometry>
        </mxCell>
        <mxCell id="hXWdCOX5dW75Eq7yHCM4-506" style="edgeStyle=orthogonalEdgeStyle;rounded=0;orthogonalLoop=1;jettySize=auto;html=1;startArrow=none;startFill=0;endArrow=none;endFill=0;fontSize=21;align=center;verticalAlign=middle;" edge="1" parent="1">
          <mxGeometry relative="1" as="geometry">
            <mxPoint x="-240" y="-2263" as="targetPoint" />
            <mxPoint x="-365" y="-2263" as="sourcePoint" />
            <Array as="points">
              <mxPoint x="-240" y="-2269.99" />
              <mxPoint x="-240" y="-2269.99" />
            </Array>
          </mxGeometry>
        </mxCell>
        <mxCell id="hXWdCOX5dW75Eq7yHCM4-516" value="&lt;span&gt;Belong&lt;/span&gt;" style="rhombus;whiteSpace=wrap;html=1;fillColor=#60a917;strokeColor=#2D7600;align=center;verticalAlign=middle;" vertex="1" parent="1">
          <mxGeometry x="-575" y="-2223.75" width="70" height="70" as="geometry" />
        </mxCell>
        <mxCell id="hXWdCOX5dW75Eq7yHCM4-517" style="edgeStyle=orthogonalEdgeStyle;rounded=0;orthogonalLoop=1;jettySize=auto;html=1;exitX=1;exitY=0.5;exitDx=0;exitDy=0;entryX=0;entryY=0.5;entryDx=0;entryDy=0;startArrow=none;startFill=0;endArrow=none;endFill=0;fontSize=21;shape=link;align=center;verticalAlign=middle;" edge="1" parent="1" source="hXWdCOX5dW75Eq7yHCM4-118" target="hXWdCOX5dW75Eq7yHCM4-516">
          <mxGeometry relative="1" as="geometry">
            <mxPoint x="-695" y="-2188.75" as="sourcePoint" />
            <mxPoint x="-360" y="-2188.75" as="targetPoint" />
          </mxGeometry>
        </mxCell>
        <mxCell id="hXWdCOX5dW75Eq7yHCM4-519" value="&lt;span&gt;Have&lt;/span&gt;" style="rhombus;whiteSpace=wrap;html=1;fillColor=#60a917;strokeColor=#2D7600;align=center;verticalAlign=middle;" vertex="1" parent="1">
          <mxGeometry x="-335" y="-2103" width="70" height="70" as="geometry" />
        </mxCell>
        <mxCell id="hXWdCOX5dW75Eq7yHCM4-520" value="&lt;span&gt;Have&lt;/span&gt;" style="rhombus;whiteSpace=wrap;html=1;fillColor=#60a917;fontStyle=0;rounded=0;sketch=0;perimeterSpacing=7;strokeWidth=4;align=center;verticalAlign=middle;" vertex="1" parent="1">
          <mxGeometry x="-790" y="-2100" width="70" height="70" as="geometry" />
        </mxCell>
        <mxCell id="hXWdCOX5dW75Eq7yHCM4-522" value="&lt;span&gt;Manage&lt;/span&gt;" style="rhombus;whiteSpace=wrap;html=1;fillColor=#60a917;labelBackgroundColor=none;strokeWidth=4;perimeterSpacing=7;align=center;verticalAlign=middle;" vertex="1" parent="1">
          <mxGeometry x="-437.12" y="-2103" width="70" height="70" as="geometry" />
        </mxCell>
        <mxCell id="hXWdCOX5dW75Eq7yHCM4-524" value="" style="endArrow=none;html=1;fontSize=21;entryX=0;entryY=1;entryDx=0;entryDy=0;exitX=0.509;exitY=0.06;exitDx=0;exitDy=0;exitPerimeter=0;shape=link;align=center;verticalAlign=middle;" edge="1" parent="1" source="hXWdCOX5dW75Eq7yHCM4-522" target="hXWdCOX5dW75Eq7yHCM4-173">
          <mxGeometry width="50" height="50" relative="1" as="geometry">
            <mxPoint x="-405" y="-2103" as="sourcePoint" />
            <mxPoint x="-355" y="-2153" as="targetPoint" />
          </mxGeometry>
        </mxCell>
        <mxCell id="hXWdCOX5dW75Eq7yHCM4-525" value="" style="endArrow=none;html=1;fontSize=21;entryX=0.499;entryY=0.945;entryDx=0;entryDy=0;exitX=0;exitY=0;exitDx=0;exitDy=0;entryPerimeter=0;shape=link;align=center;verticalAlign=middle;" edge="1" parent="1" source="hXWdCOX5dW75Eq7yHCM4-174" target="hXWdCOX5dW75Eq7yHCM4-522">
          <mxGeometry width="50" height="50" relative="1" as="geometry">
            <mxPoint x="-397.1199999999999" y="-1985.12" as="sourcePoint" />
            <mxPoint x="-355" y="-2040.87" as="targetPoint" />
          </mxGeometry>
        </mxCell>
        <mxCell id="hXWdCOX5dW75Eq7yHCM4-533" style="edgeStyle=orthogonalEdgeStyle;rounded=0;orthogonalLoop=1;jettySize=auto;html=1;exitX=0.5;exitY=1;exitDx=0;exitDy=0;startArrow=none;startFill=0;endArrow=none;endFill=0;fontSize=21;entryX=0.5;entryY=0;entryDx=0;entryDy=0;align=center;verticalAlign=middle;" edge="1" parent="1" source="hXWdCOX5dW75Eq7yHCM4-526" target="hXWdCOX5dW75Eq7yHCM4-528">
          <mxGeometry relative="1" as="geometry">
            <mxPoint x="-545.1428571428571" y="-2020" as="targetPoint" />
          </mxGeometry>
        </mxCell>
        <mxCell id="hXWdCOX5dW75Eq7yHCM4-526" value="&lt;b&gt;SalaryRecord&lt;/b&gt;" style="rounded=0;whiteSpace=wrap;html=1;fillColor=#dae8fc;perimeterSpacing=4;strokeWidth=4;align=center;verticalAlign=middle;" vertex="1" parent="1">
          <mxGeometry x="-605" y="-2090" width="120" height="60" as="geometry" />
        </mxCell>
        <mxCell id="hXWdCOX5dW75Eq7yHCM4-532" style="edgeStyle=orthogonalEdgeStyle;rounded=0;orthogonalLoop=1;jettySize=auto;html=1;exitX=0.625;exitY=-0.004;exitDx=0;exitDy=0;startArrow=none;startFill=0;endArrow=none;endFill=0;fontSize=21;exitPerimeter=0;align=center;verticalAlign=middle;" edge="1" parent="1" source="hXWdCOX5dW75Eq7yHCM4-527">
          <mxGeometry relative="1" as="geometry">
            <mxPoint x="-635" y="-2020" as="targetPoint" />
            <Array as="points">
              <mxPoint x="-635" y="-2010" />
              <mxPoint x="-635" y="-2010" />
            </Array>
          </mxGeometry>
        </mxCell>
        <mxCell id="hXWdCOX5dW75Eq7yHCM4-527" value="&lt;span style=&quot;font-size: 12px;&quot;&gt;EmployeeID&lt;/span&gt;" style="ellipse;whiteSpace=wrap;html=1;shadow=0;labelBackgroundColor=none;strokeColor=#b85450;strokeWidth=1;fillColor=#f8cecc;fontSize=21;align=center;verticalAlign=middle;" vertex="1" parent="1">
          <mxGeometry x="-685" y="-2005" width="80" height="30" as="geometry" />
        </mxCell>
        <mxCell id="hXWdCOX5dW75Eq7yHCM4-528" value="&lt;span style=&quot;font-size: 12px;&quot;&gt;StartSalary&lt;/span&gt;" style="ellipse;whiteSpace=wrap;html=1;shadow=0;labelBackgroundColor=none;strokeColor=#000000;strokeWidth=1;fillColor=#FFFFFF;gradientColor=#ffffff;fontSize=21;align=center;verticalAlign=middle;" vertex="1" parent="1">
          <mxGeometry x="-585" y="-2005" width="80" height="30" as="geometry" />
        </mxCell>
        <mxCell id="hXWdCOX5dW75Eq7yHCM4-531" style="edgeStyle=orthogonalEdgeStyle;rounded=0;orthogonalLoop=1;jettySize=auto;html=1;exitX=0.5;exitY=0;exitDx=0;exitDy=0;startArrow=none;startFill=0;endArrow=none;endFill=0;fontSize=21;align=center;verticalAlign=middle;" edge="1" parent="1" source="hXWdCOX5dW75Eq7yHCM4-529">
          <mxGeometry relative="1" as="geometry">
            <mxPoint x="-445" y="-2020" as="targetPoint" />
          </mxGeometry>
        </mxCell>
        <mxCell id="hXWdCOX5dW75Eq7yHCM4-529" value="&lt;span style=&quot;font-size: 12px;&quot;&gt;CurrentSalary&lt;/span&gt;" style="ellipse;whiteSpace=wrap;html=1;shadow=0;labelBackgroundColor=none;strokeColor=#000000;strokeWidth=1;fillColor=#FFFFFF;gradientColor=#ffffff;fontSize=21;align=center;verticalAlign=middle;" vertex="1" parent="1">
          <mxGeometry x="-495" y="-2005" width="90" height="30" as="geometry" />
        </mxCell>
        <mxCell id="hXWdCOX5dW75Eq7yHCM4-530" style="edgeStyle=orthogonalEdgeStyle;rounded=0;orthogonalLoop=1;jettySize=auto;html=1;startArrow=none;startFill=0;endArrow=none;endFill=0;fontSize=21;align=center;verticalAlign=middle;" edge="1" parent="1">
          <mxGeometry relative="1" as="geometry">
            <mxPoint x="-635" y="-2020" as="sourcePoint" />
            <mxPoint x="-445" y="-2020" as="targetPoint" />
          </mxGeometry>
        </mxCell>
        <mxCell id="hXWdCOX5dW75Eq7yHCM4-535" value="" style="endArrow=none;html=1;fontSize=21;exitX=1;exitY=1;exitDx=0;exitDy=0;shape=link;align=center;verticalAlign=middle;" edge="1" parent="1" source="hXWdCOX5dW75Eq7yHCM4-118">
          <mxGeometry width="50" height="50" relative="1" as="geometry">
            <mxPoint x="-665" y="-1970" as="sourcePoint" />
            <mxPoint x="-605" y="-2090" as="targetPoint" />
            <Array as="points" />
          </mxGeometry>
        </mxCell>
        <mxCell id="hXWdCOX5dW75Eq7yHCM4-536" value="&lt;span&gt;Has&lt;/span&gt;" style="rhombus;whiteSpace=wrap;html=1;fillColor=#60a917;strokeWidth=4;perimeterSpacing=7;align=center;verticalAlign=middle;" vertex="1" parent="1">
          <mxGeometry x="-685" y="-2161.75" width="70" height="70" as="geometry" />
        </mxCell>
        <mxCell id="hXWdCOX5dW75Eq7yHCM4-539" value="M" style="text;html=1;align=center;verticalAlign=middle;resizable=0;points=[];autosize=1;fontSize=21;fontColor=#000000;" vertex="1" parent="1">
          <mxGeometry x="-690" y="-2215" width="30" height="30" as="geometry" />
        </mxCell>
        <mxCell id="hXWdCOX5dW75Eq7yHCM4-540" value="N" style="text;html=1;align=center;verticalAlign=middle;resizable=0;points=[];autosize=1;fontSize=21;fontColor=#000000;" vertex="1" parent="1">
          <mxGeometry x="-390" y="-2215" width="30" height="30" as="geometry" />
        </mxCell>
        <mxCell id="hXWdCOX5dW75Eq7yHCM4-541" value="1" style="text;html=1;align=center;verticalAlign=middle;resizable=0;points=[];autosize=1;fontSize=21;fontColor=#000000;" vertex="1" parent="1">
          <mxGeometry x="-375" y="-2015" width="30" height="30" as="geometry" />
        </mxCell>
        <mxCell id="hXWdCOX5dW75Eq7yHCM4-542" value="N" style="text;html=1;align=center;verticalAlign=middle;resizable=0;points=[];autosize=1;fontSize=21;fontColor=#000000;fillColor=#ffffff;" vertex="1" parent="1">
          <mxGeometry x="-360" y="-2148.25" width="30" height="30" as="geometry" />
        </mxCell>
        <mxCell id="hXWdCOX5dW75Eq7yHCM4-543" value="1" style="text;html=1;align=center;verticalAlign=middle;resizable=0;points=[];autosize=1;fontSize=21;fontColor=#000000;" vertex="1" parent="1">
          <mxGeometry x="-300" y="-2158.75" width="30" height="30" as="geometry" />
        </mxCell>
        <mxCell id="hXWdCOX5dW75Eq7yHCM4-544" value="M" style="text;html=1;align=center;verticalAlign=middle;resizable=0;points=[];autosize=1;fontSize=21;fontColor=#000000;" vertex="1" parent="1">
          <mxGeometry x="-295" y="-2015" width="30" height="30" as="geometry" />
        </mxCell>
        <mxCell id="hXWdCOX5dW75Eq7yHCM4-545" value="1" style="text;html=1;align=center;verticalAlign=middle;resizable=0;points=[];autosize=1;fontSize=21;fontColor=#000000;" vertex="1" parent="1">
          <mxGeometry x="-755" y="-2148.25" width="30" height="30" as="geometry" />
        </mxCell>
        <mxCell id="hXWdCOX5dW75Eq7yHCM4-546" value="N" style="text;html=1;align=center;verticalAlign=middle;resizable=0;points=[];autosize=1;fontSize=21;fontColor=#000000;" vertex="1" parent="1">
          <mxGeometry x="-755" y="-2010" width="30" height="30" as="geometry" />
        </mxCell>
        <mxCell id="hXWdCOX5dW75Eq7yHCM4-548" style="edgeStyle=orthogonalEdgeStyle;rounded=0;orthogonalLoop=1;jettySize=auto;html=1;exitX=0.5;exitY=0;exitDx=0;exitDy=0;startArrow=none;startFill=0;endArrow=none;endFill=0;fontSize=21;fontColor=#000000;align=center;verticalAlign=middle;" edge="1" parent="1" source="hXWdCOX5dW75Eq7yHCM4-547">
          <mxGeometry relative="1" as="geometry">
            <mxPoint x="-1025.1666666666665" y="-1880" as="targetPoint" />
          </mxGeometry>
        </mxCell>
        <mxCell id="hXWdCOX5dW75Eq7yHCM4-547" value="&lt;span style=&quot;font-size: 12px;&quot;&gt;CurrentJobTitle&lt;/span&gt;" style="ellipse;whiteSpace=wrap;html=1;shadow=0;labelBackgroundColor=none;strokeColor=#000000;strokeWidth=1;fillColor=#FFFFFF;gradientColor=#ffffff;fontSize=21;align=center;verticalAlign=middle;" vertex="1" parent="1">
          <mxGeometry x="-1085" y="-1850" width="120" height="40" as="geometry" />
        </mxCell>
        <mxCell id="hXWdCOX5dW75Eq7yHCM4-562" value="1" style="text;html=1;align=center;verticalAlign=middle;resizable=0;points=[];autosize=1;fontSize=21;fontColor=#000000;" vertex="1" parent="1">
          <mxGeometry x="-695" y="-2180" width="30" height="30" as="geometry" />
        </mxCell>
        <mxCell id="hXWdCOX5dW75Eq7yHCM4-563" value="m" style="text;html=1;align=center;verticalAlign=middle;resizable=0;points=[];autosize=1;fontSize=21;fontColor=#000000;" vertex="1" parent="1">
          <mxGeometry x="-625" y="-2123.75" width="30" height="30" as="geometry" />
        </mxCell>
        <mxCell id="hXWdCOX5dW75Eq7yHCM4-565" style="edgeStyle=orthogonalEdgeStyle;rounded=0;orthogonalLoop=1;jettySize=auto;html=1;startArrow=none;startFill=0;endArrow=none;endFill=0;fontSize=21;align=center;verticalAlign=middle;" edge="1" parent="1">
          <mxGeometry relative="1" as="geometry">
            <mxPoint x="-595" y="-2020.44" as="targetPoint" />
            <mxPoint x="-595" y="-1960" as="sourcePoint" />
            <Array as="points">
              <mxPoint x="-595" y="-2010.44" />
              <mxPoint x="-595" y="-2010.44" />
            </Array>
          </mxGeometry>
        </mxCell>
        <mxCell id="hXWdCOX5dW75Eq7yHCM4-566" value="&lt;div style=&quot;&quot;&gt;&lt;span style=&quot;font-size: 12px&quot;&gt;Reason&lt;/span&gt;&lt;/div&gt;" style="ellipse;whiteSpace=wrap;html=1;shadow=0;labelBackgroundColor=none;strokeColor=#000000;strokeWidth=1;fillColor=#FFFFFF;gradientColor=#ffffff;fontSize=21;align=center;verticalAlign=middle;" vertex="1" parent="1">
          <mxGeometry x="-635" y="-1965" width="80" height="30" as="geometry" />
        </mxCell>
        <mxCell id="hXWdCOX5dW75Eq7yHCM4-567" value="&lt;span style=&quot;&quot;&gt;JobID&lt;/span&gt;" style="shape=partialRectangle;html=1;whiteSpace=wrap;connectable=0;fillColor=none;top=0;left=0;bottom=0;right=0;align=center;spacingLeft=6;overflow=hidden;shadow=0;verticalAlign=middle;" vertex="1" parent="1">
          <mxGeometry x="-655" y="-1267" width="140" height="30" as="geometry" />
        </mxCell>
        <mxCell id="hXWdCOX5dW75Eq7yHCM4-568" value="Entity Relationship Diagram - Chen Noation" style="text;html=1;align=center;verticalAlign=middle;resizable=0;points=[];autosize=1;fillColor=#dae8fc;strokeColor=#6c8ebf;strokeWidth=5;fontSize=21;fontStyle=1" vertex="1" parent="1">
          <mxGeometry x="-1045" y="-2500" width="450" height="30" as="geometry" />
        </mxCell>
        <mxCell id="hXWdCOX5dW75Eq7yHCM4-569" style="edgeStyle=orthogonalEdgeStyle;rounded=0;orthogonalLoop=1;jettySize=auto;html=1;startArrow=none;startFill=0;endArrow=none;endFill=0;fontSize=21;align=center;verticalAlign=middle;" edge="1" parent="1">
          <mxGeometry relative="1" as="geometry">
            <mxPoint x="-500" y="-2020" as="targetPoint" />
            <mxPoint x="-500" y="-1959.56" as="sourcePoint" />
            <Array as="points">
              <mxPoint x="-500" y="-2010" />
              <mxPoint x="-500" y="-2010" />
            </Array>
          </mxGeometry>
        </mxCell>
        <mxCell id="hXWdCOX5dW75Eq7yHCM4-570" value="&lt;div style=&quot;&quot;&gt;&lt;span style=&quot;font-size: 12px&quot;&gt;JobID&lt;/span&gt;&lt;/div&gt;" style="ellipse;whiteSpace=wrap;html=1;shadow=0;labelBackgroundColor=none;strokeColor=#ae4132;strokeWidth=1;fillColor=#fad9d5;fontSize=21;align=center;verticalAlign=middle;" vertex="1" parent="1">
          <mxGeometry x="-530" y="-1965" width="80" height="30" as="geometry" />
        </mxCell>
        <mxCell id="hXWdCOX5dW75Eq7yHCM4-572" style="edgeStyle=orthogonalEdgeStyle;rounded=0;orthogonalLoop=1;jettySize=auto;html=1;startArrow=none;startFill=0;endArrow=none;endFill=0;fontSize=21;align=center;verticalAlign=middle;" edge="1" parent="1">
          <mxGeometry relative="1" as="geometry">
            <mxPoint x="-830" y="-1880" as="targetPoint" />
            <mxPoint x="-830" y="-1790" as="sourcePoint" />
          </mxGeometry>
        </mxCell>
        <mxCell id="hXWdCOX5dW75Eq7yHCM4-573" value="&lt;span style=&quot;font-size: 12px;&quot;&gt;JobID&lt;/span&gt;" style="ellipse;whiteSpace=wrap;html=1;shadow=0;labelBackgroundColor=none;strokeColor=#56517e;strokeWidth=1;fillColor=#d0cee2;fontSize=21;align=center;verticalAlign=middle;" vertex="1" parent="1">
          <mxGeometry x="-890" y="-1790" width="120" height="40" as="geometry" />
        </mxCell>
        <mxCell id="hXWdCOX5dW75Eq7yHCM4-577" value="&lt;span style=&quot;&quot;&gt;Reason&lt;/span&gt;" style="shape=partialRectangle;html=1;whiteSpace=wrap;connectable=0;fillColor=none;top=0;left=0;bottom=0;right=0;align=center;spacingLeft=6;overflow=hidden;shadow=0;verticalAlign=middle;" vertex="1" parent="1">
          <mxGeometry x="-655" y="-1240" width="140" height="30" as="geometry" />
        </mxCell>
        <mxCell id="hXWdCOX5dW75Eq7yHCM4-578" value="FK" style="text;html=1;align=center;verticalAlign=middle;resizable=0;points=[];autosize=1;fontSize=13;fontColor=#000000;fontStyle=0" vertex="1" parent="1">
          <mxGeometry x="-695" y="-1260" width="30" height="20" as="geometry" />
        </mxCell>
        <mxCell id="hXWdCOX5dW75Eq7yHCM4-580" value="CCT- College Dublin&lt;br&gt;&amp;nbsp;CA1 - Data&amp;nbsp;Base&lt;br&gt;&lt;br&gt;Kaique Silva 2019137&lt;br&gt;&lt;br&gt;Lecturer: Mikhail" style="shape=note;whiteSpace=wrap;html=1;backgroundOutline=1;darkOpacity=0.05;rounded=0;shadow=0;labelBackgroundColor=none;sketch=0;strokeWidth=4;fillColor=#b1ddf0;fontSize=13;align=center;verticalAlign=middle;" vertex="1" parent="1">
          <mxGeometry x="-480" y="-2540" width="360" height="180" as="geometry" />
        </mxCell>
        <mxCell id="hXWdCOX5dW75Eq7yHCM4-581" value="CCT- College Dublin&lt;br&gt;&amp;nbsp;CA1 - Data&amp;nbsp;Base&lt;br&gt;&lt;br&gt;Kaique Silva 2019137&lt;br&gt;&lt;br&gt;Lecturer: Mikhail" style="shape=note;whiteSpace=wrap;html=1;backgroundOutline=1;darkOpacity=0.05;rounded=0;shadow=0;labelBackgroundColor=none;sketch=0;strokeWidth=4;fillColor=#b1ddf0;fontSize=13;align=center;verticalAlign=middle;" vertex="1" parent="1">
          <mxGeometry x="-480" y="-1670" width="360" height="180" as="geometry" />
        </mxCell>
      </root>
    </mxGraphModel>
  </diagram>
</mxfile>
